<mxfile host="app.diagrams.net" agent="Mozilla/5.0 (Windows NT 10.0; Win64; x64) AppleWebKit/537.36 (KHTML, like Gecko) Chrome/133.0.0.0 Safari/537.36" version="26.1.0">
  <diagram name="PÃ¡gina-1" id="gen1MazxwgawH7L2BB0w">
    <mxGraphModel dx="1500" dy="807" grid="1" gridSize="10" guides="1" tooltips="1" connect="1" arrows="1" fold="1" page="1" pageScale="1" pageWidth="827" pageHeight="1169" math="0" shadow="0">
      <root>
        <mxCell id="0" />
        <mxCell id="1" parent="0" />
        <mxCell id="QuGuH87Z9oa2x3cKEOqw-1" value="socio" style="shape=table;startSize=30;container=1;collapsible=1;childLayout=tableLayout;fixedRows=1;rowLines=0;fontStyle=1;align=center;resizeLast=1;html=1;" parent="1" vertex="1">
          <mxGeometry x="930" y="760" width="210" height="220" as="geometry" />
        </mxCell>
        <mxCell id="QuGuH87Z9oa2x3cKEOqw-2" value="" style="shape=tableRow;horizontal=0;startSize=0;swimlaneHead=0;swimlaneBody=0;fillColor=none;collapsible=0;dropTarget=0;points=[[0,0.5],[1,0.5]];portConstraint=eastwest;top=0;left=0;right=0;bottom=1;" parent="QuGuH87Z9oa2x3cKEOqw-1" vertex="1">
          <mxGeometry y="30" width="210" height="30" as="geometry" />
        </mxCell>
        <mxCell id="QuGuH87Z9oa2x3cKEOqw-3" value="PK" style="shape=partialRectangle;connectable=0;fillColor=none;top=0;left=0;bottom=0;right=0;fontStyle=1;overflow=hidden;whiteSpace=wrap;html=1;" parent="QuGuH87Z9oa2x3cKEOqw-2" vertex="1">
          <mxGeometry width="30" height="30" as="geometry">
            <mxRectangle width="30" height="30" as="alternateBounds" />
          </mxGeometry>
        </mxCell>
        <mxCell id="QuGuH87Z9oa2x3cKEOqw-4" value="id_socio int" style="shape=partialRectangle;connectable=0;fillColor=none;top=0;left=0;bottom=0;right=0;align=left;spacingLeft=6;fontStyle=5;overflow=hidden;whiteSpace=wrap;html=1;" parent="QuGuH87Z9oa2x3cKEOqw-2" vertex="1">
          <mxGeometry x="30" width="180" height="30" as="geometry">
            <mxRectangle width="180" height="30" as="alternateBounds" />
          </mxGeometry>
        </mxCell>
        <mxCell id="QuGuH87Z9oa2x3cKEOqw-5" value="" style="shape=tableRow;horizontal=0;startSize=0;swimlaneHead=0;swimlaneBody=0;fillColor=none;collapsible=0;dropTarget=0;points=[[0,0.5],[1,0.5]];portConstraint=eastwest;top=0;left=0;right=0;bottom=0;" parent="QuGuH87Z9oa2x3cKEOqw-1" vertex="1">
          <mxGeometry y="60" width="210" height="30" as="geometry" />
        </mxCell>
        <mxCell id="QuGuH87Z9oa2x3cKEOqw-6" value="" style="shape=partialRectangle;connectable=0;fillColor=none;top=0;left=0;bottom=0;right=0;editable=1;overflow=hidden;whiteSpace=wrap;html=1;" parent="QuGuH87Z9oa2x3cKEOqw-5" vertex="1">
          <mxGeometry width="30" height="30" as="geometry">
            <mxRectangle width="30" height="30" as="alternateBounds" />
          </mxGeometry>
        </mxCell>
        <mxCell id="QuGuH87Z9oa2x3cKEOqw-7" value="dni varchar(10) not null" style="shape=partialRectangle;connectable=0;fillColor=none;top=0;left=0;bottom=0;right=0;align=left;spacingLeft=6;overflow=hidden;whiteSpace=wrap;html=1;" parent="QuGuH87Z9oa2x3cKEOqw-5" vertex="1">
          <mxGeometry x="30" width="180" height="30" as="geometry">
            <mxRectangle width="180" height="30" as="alternateBounds" />
          </mxGeometry>
        </mxCell>
        <mxCell id="QuGuH87Z9oa2x3cKEOqw-45" value="" style="shape=tableRow;horizontal=0;startSize=0;swimlaneHead=0;swimlaneBody=0;fillColor=none;collapsible=0;dropTarget=0;points=[[0,0.5],[1,0.5]];portConstraint=eastwest;top=0;left=0;right=0;bottom=0;" parent="QuGuH87Z9oa2x3cKEOqw-1" vertex="1">
          <mxGeometry y="90" width="210" height="30" as="geometry" />
        </mxCell>
        <mxCell id="QuGuH87Z9oa2x3cKEOqw-46" value="" style="shape=partialRectangle;connectable=0;fillColor=none;top=0;left=0;bottom=0;right=0;editable=1;overflow=hidden;whiteSpace=wrap;html=1;" parent="QuGuH87Z9oa2x3cKEOqw-45" vertex="1">
          <mxGeometry width="30" height="30" as="geometry">
            <mxRectangle width="30" height="30" as="alternateBounds" />
          </mxGeometry>
        </mxCell>
        <mxCell id="QuGuH87Z9oa2x3cKEOqw-47" value="nombre varchar(50) not null" style="shape=partialRectangle;connectable=0;fillColor=none;top=0;left=0;bottom=0;right=0;align=left;spacingLeft=6;overflow=hidden;whiteSpace=wrap;html=1;" parent="QuGuH87Z9oa2x3cKEOqw-45" vertex="1">
          <mxGeometry x="30" width="180" height="30" as="geometry">
            <mxRectangle width="180" height="30" as="alternateBounds" />
          </mxGeometry>
        </mxCell>
        <mxCell id="QuGuH87Z9oa2x3cKEOqw-48" value="" style="shape=tableRow;horizontal=0;startSize=0;swimlaneHead=0;swimlaneBody=0;fillColor=none;collapsible=0;dropTarget=0;points=[[0,0.5],[1,0.5]];portConstraint=eastwest;top=0;left=0;right=0;bottom=0;" parent="QuGuH87Z9oa2x3cKEOqw-1" vertex="1">
          <mxGeometry y="120" width="210" height="25" as="geometry" />
        </mxCell>
        <mxCell id="QuGuH87Z9oa2x3cKEOqw-49" value="" style="shape=partialRectangle;connectable=0;fillColor=none;top=0;left=0;bottom=0;right=0;editable=1;overflow=hidden;whiteSpace=wrap;html=1;" parent="QuGuH87Z9oa2x3cKEOqw-48" vertex="1">
          <mxGeometry width="30" height="25" as="geometry">
            <mxRectangle width="30" height="25" as="alternateBounds" />
          </mxGeometry>
        </mxCell>
        <mxCell id="QuGuH87Z9oa2x3cKEOqw-50" value="apellido_1 varchar(50) not null" style="shape=partialRectangle;connectable=0;fillColor=none;top=0;left=0;bottom=0;right=0;align=left;spacingLeft=6;overflow=hidden;whiteSpace=wrap;html=1;" parent="QuGuH87Z9oa2x3cKEOqw-48" vertex="1">
          <mxGeometry x="30" width="180" height="25" as="geometry">
            <mxRectangle width="180" height="25" as="alternateBounds" />
          </mxGeometry>
        </mxCell>
        <mxCell id="QuGuH87Z9oa2x3cKEOqw-209" value="" style="shape=tableRow;horizontal=0;startSize=0;swimlaneHead=0;swimlaneBody=0;fillColor=none;collapsible=0;dropTarget=0;points=[[0,0.5],[1,0.5]];portConstraint=eastwest;top=0;left=0;right=0;bottom=0;" parent="QuGuH87Z9oa2x3cKEOqw-1" vertex="1">
          <mxGeometry y="145" width="210" height="25" as="geometry" />
        </mxCell>
        <mxCell id="QuGuH87Z9oa2x3cKEOqw-210" value="" style="shape=partialRectangle;connectable=0;fillColor=none;top=0;left=0;bottom=0;right=0;editable=1;overflow=hidden;whiteSpace=wrap;html=1;" parent="QuGuH87Z9oa2x3cKEOqw-209" vertex="1">
          <mxGeometry width="30" height="25" as="geometry">
            <mxRectangle width="30" height="25" as="alternateBounds" />
          </mxGeometry>
        </mxCell>
        <mxCell id="QuGuH87Z9oa2x3cKEOqw-211" value="apellido_2 varchar(50)" style="shape=partialRectangle;connectable=0;fillColor=none;top=0;left=0;bottom=0;right=0;align=left;spacingLeft=6;overflow=hidden;whiteSpace=wrap;html=1;" parent="QuGuH87Z9oa2x3cKEOqw-209" vertex="1">
          <mxGeometry x="30" width="180" height="25" as="geometry">
            <mxRectangle width="180" height="25" as="alternateBounds" />
          </mxGeometry>
        </mxCell>
        <mxCell id="rG9OFgmg1wYXfBV-wKyQ-11" value="" style="shape=tableRow;horizontal=0;startSize=0;swimlaneHead=0;swimlaneBody=0;fillColor=none;collapsible=0;dropTarget=0;points=[[0,0.5],[1,0.5]];portConstraint=eastwest;top=0;left=0;right=0;bottom=0;" vertex="1" parent="QuGuH87Z9oa2x3cKEOqw-1">
          <mxGeometry y="170" width="210" height="25" as="geometry" />
        </mxCell>
        <mxCell id="rG9OFgmg1wYXfBV-wKyQ-12" value="" style="shape=partialRectangle;connectable=0;fillColor=none;top=0;left=0;bottom=0;right=0;editable=1;overflow=hidden;whiteSpace=wrap;html=1;" vertex="1" parent="rG9OFgmg1wYXfBV-wKyQ-11">
          <mxGeometry width="30" height="25" as="geometry">
            <mxRectangle width="30" height="25" as="alternateBounds" />
          </mxGeometry>
        </mxCell>
        <mxCell id="rG9OFgmg1wYXfBV-wKyQ-13" value="fecha_nacimiento date not null" style="shape=partialRectangle;connectable=0;fillColor=none;top=0;left=0;bottom=0;right=0;align=left;spacingLeft=6;overflow=hidden;whiteSpace=wrap;html=1;" vertex="1" parent="rG9OFgmg1wYXfBV-wKyQ-11">
          <mxGeometry x="30" width="180" height="25" as="geometry">
            <mxRectangle width="180" height="25" as="alternateBounds" />
          </mxGeometry>
        </mxCell>
        <mxCell id="rG9OFgmg1wYXfBV-wKyQ-14" value="" style="shape=tableRow;horizontal=0;startSize=0;swimlaneHead=0;swimlaneBody=0;fillColor=none;collapsible=0;dropTarget=0;points=[[0,0.5],[1,0.5]];portConstraint=eastwest;top=0;left=0;right=0;bottom=0;" vertex="1" parent="QuGuH87Z9oa2x3cKEOqw-1">
          <mxGeometry y="195" width="210" height="25" as="geometry" />
        </mxCell>
        <mxCell id="rG9OFgmg1wYXfBV-wKyQ-15" value="" style="shape=partialRectangle;connectable=0;fillColor=none;top=0;left=0;bottom=0;right=0;editable=1;overflow=hidden;whiteSpace=wrap;html=1;" vertex="1" parent="rG9OFgmg1wYXfBV-wKyQ-14">
          <mxGeometry width="30" height="25" as="geometry">
            <mxRectangle width="30" height="25" as="alternateBounds" />
          </mxGeometry>
        </mxCell>
        <mxCell id="rG9OFgmg1wYXfBV-wKyQ-16" value="telefono int" style="shape=partialRectangle;connectable=0;fillColor=none;top=0;left=0;bottom=0;right=0;align=left;spacingLeft=6;overflow=hidden;whiteSpace=wrap;html=1;" vertex="1" parent="rG9OFgmg1wYXfBV-wKyQ-14">
          <mxGeometry x="30" width="180" height="25" as="geometry">
            <mxRectangle width="180" height="25" as="alternateBounds" />
          </mxGeometry>
        </mxCell>
        <mxCell id="QuGuH87Z9oa2x3cKEOqw-73" value="prestamo" style="shape=table;startSize=30;container=1;collapsible=1;childLayout=tableLayout;fixedRows=1;rowLines=0;fontStyle=1;align=center;resizeLast=1;html=1;" parent="1" vertex="1">
          <mxGeometry x="530" y="530" width="230" height="180" as="geometry" />
        </mxCell>
        <mxCell id="QuGuH87Z9oa2x3cKEOqw-74" value="" style="shape=tableRow;horizontal=0;startSize=0;swimlaneHead=0;swimlaneBody=0;fillColor=none;collapsible=0;dropTarget=0;points=[[0,0.5],[1,0.5]];portConstraint=eastwest;top=0;left=0;right=0;bottom=1;" parent="QuGuH87Z9oa2x3cKEOqw-73" vertex="1">
          <mxGeometry y="30" width="230" height="30" as="geometry" />
        </mxCell>
        <mxCell id="QuGuH87Z9oa2x3cKEOqw-75" value="PK" style="shape=partialRectangle;connectable=0;fillColor=none;top=0;left=0;bottom=0;right=0;fontStyle=1;overflow=hidden;whiteSpace=wrap;html=1;" parent="QuGuH87Z9oa2x3cKEOqw-74" vertex="1">
          <mxGeometry width="30" height="30" as="geometry">
            <mxRectangle width="30" height="30" as="alternateBounds" />
          </mxGeometry>
        </mxCell>
        <mxCell id="QuGuH87Z9oa2x3cKEOqw-76" value="id_prestamo int" style="shape=partialRectangle;connectable=0;fillColor=none;top=0;left=0;bottom=0;right=0;align=left;spacingLeft=6;fontStyle=5;overflow=hidden;whiteSpace=wrap;html=1;" parent="QuGuH87Z9oa2x3cKEOqw-74" vertex="1">
          <mxGeometry x="30" width="200" height="30" as="geometry">
            <mxRectangle width="200" height="30" as="alternateBounds" />
          </mxGeometry>
        </mxCell>
        <mxCell id="QuGuH87Z9oa2x3cKEOqw-77" value="" style="shape=tableRow;horizontal=0;startSize=0;swimlaneHead=0;swimlaneBody=0;fillColor=none;collapsible=0;dropTarget=0;points=[[0,0.5],[1,0.5]];portConstraint=eastwest;top=0;left=0;right=0;bottom=0;" parent="QuGuH87Z9oa2x3cKEOqw-73" vertex="1">
          <mxGeometry y="60" width="230" height="30" as="geometry" />
        </mxCell>
        <mxCell id="QuGuH87Z9oa2x3cKEOqw-78" value="FK" style="shape=partialRectangle;connectable=0;fillColor=none;top=0;left=0;bottom=0;right=0;editable=1;overflow=hidden;whiteSpace=wrap;html=1;" parent="QuGuH87Z9oa2x3cKEOqw-77" vertex="1">
          <mxGeometry width="30" height="30" as="geometry">
            <mxRectangle width="30" height="30" as="alternateBounds" />
          </mxGeometry>
        </mxCell>
        <mxCell id="QuGuH87Z9oa2x3cKEOqw-79" value="id_copia int not null" style="shape=partialRectangle;connectable=0;fillColor=none;top=0;left=0;bottom=0;right=0;align=left;spacingLeft=6;overflow=hidden;whiteSpace=wrap;html=1;" parent="QuGuH87Z9oa2x3cKEOqw-77" vertex="1">
          <mxGeometry x="30" width="200" height="30" as="geometry">
            <mxRectangle width="200" height="30" as="alternateBounds" />
          </mxGeometry>
        </mxCell>
        <mxCell id="QuGuH87Z9oa2x3cKEOqw-80" value="" style="shape=tableRow;horizontal=0;startSize=0;swimlaneHead=0;swimlaneBody=0;fillColor=none;collapsible=0;dropTarget=0;points=[[0,0.5],[1,0.5]];portConstraint=eastwest;top=0;left=0;right=0;bottom=0;" parent="QuGuH87Z9oa2x3cKEOqw-73" vertex="1">
          <mxGeometry y="90" width="230" height="30" as="geometry" />
        </mxCell>
        <mxCell id="QuGuH87Z9oa2x3cKEOqw-81" value="FK" style="shape=partialRectangle;connectable=0;fillColor=none;top=0;left=0;bottom=0;right=0;editable=1;overflow=hidden;whiteSpace=wrap;html=1;" parent="QuGuH87Z9oa2x3cKEOqw-80" vertex="1">
          <mxGeometry width="30" height="30" as="geometry">
            <mxRectangle width="30" height="30" as="alternateBounds" />
          </mxGeometry>
        </mxCell>
        <mxCell id="QuGuH87Z9oa2x3cKEOqw-82" value="id_socio int not null" style="shape=partialRectangle;connectable=0;fillColor=none;top=0;left=0;bottom=0;right=0;align=left;spacingLeft=6;overflow=hidden;whiteSpace=wrap;html=1;" parent="QuGuH87Z9oa2x3cKEOqw-80" vertex="1">
          <mxGeometry x="30" width="200" height="30" as="geometry">
            <mxRectangle width="200" height="30" as="alternateBounds" />
          </mxGeometry>
        </mxCell>
        <mxCell id="QuGuH87Z9oa2x3cKEOqw-212" value="" style="shape=tableRow;horizontal=0;startSize=0;swimlaneHead=0;swimlaneBody=0;fillColor=none;collapsible=0;dropTarget=0;points=[[0,0.5],[1,0.5]];portConstraint=eastwest;top=0;left=0;right=0;bottom=0;" parent="QuGuH87Z9oa2x3cKEOqw-73" vertex="1">
          <mxGeometry y="120" width="230" height="30" as="geometry" />
        </mxCell>
        <mxCell id="QuGuH87Z9oa2x3cKEOqw-213" value="" style="shape=partialRectangle;connectable=0;fillColor=none;top=0;left=0;bottom=0;right=0;editable=1;overflow=hidden;whiteSpace=wrap;html=1;" parent="QuGuH87Z9oa2x3cKEOqw-212" vertex="1">
          <mxGeometry width="30" height="30" as="geometry">
            <mxRectangle width="30" height="30" as="alternateBounds" />
          </mxGeometry>
        </mxCell>
        <mxCell id="QuGuH87Z9oa2x3cKEOqw-214" value="fecha_prestamo date not null" style="shape=partialRectangle;connectable=0;fillColor=none;top=0;left=0;bottom=0;right=0;align=left;spacingLeft=6;overflow=hidden;whiteSpace=wrap;html=1;" parent="QuGuH87Z9oa2x3cKEOqw-212" vertex="1">
          <mxGeometry x="30" width="200" height="30" as="geometry">
            <mxRectangle width="200" height="30" as="alternateBounds" />
          </mxGeometry>
        </mxCell>
        <mxCell id="rG9OFgmg1wYXfBV-wKyQ-1" value="" style="shape=tableRow;horizontal=0;startSize=0;swimlaneHead=0;swimlaneBody=0;fillColor=none;collapsible=0;dropTarget=0;points=[[0,0.5],[1,0.5]];portConstraint=eastwest;top=0;left=0;right=0;bottom=0;" vertex="1" parent="QuGuH87Z9oa2x3cKEOqw-73">
          <mxGeometry y="150" width="230" height="30" as="geometry" />
        </mxCell>
        <mxCell id="rG9OFgmg1wYXfBV-wKyQ-2" value="" style="shape=partialRectangle;connectable=0;fillColor=none;top=0;left=0;bottom=0;right=0;editable=1;overflow=hidden;whiteSpace=wrap;html=1;" vertex="1" parent="rG9OFgmg1wYXfBV-wKyQ-1">
          <mxGeometry width="30" height="30" as="geometry">
            <mxRectangle width="30" height="30" as="alternateBounds" />
          </mxGeometry>
        </mxCell>
        <mxCell id="rG9OFgmg1wYXfBV-wKyQ-3" value="fecha_devolucion date" style="shape=partialRectangle;connectable=0;fillColor=none;top=0;left=0;bottom=0;right=0;align=left;spacingLeft=6;overflow=hidden;whiteSpace=wrap;html=1;" vertex="1" parent="rG9OFgmg1wYXfBV-wKyQ-1">
          <mxGeometry x="30" width="200" height="30" as="geometry">
            <mxRectangle width="200" height="30" as="alternateBounds" />
          </mxGeometry>
        </mxCell>
        <mxCell id="QuGuH87Z9oa2x3cKEOqw-150" value="copia" style="shape=table;startSize=30;container=1;collapsible=1;childLayout=tableLayout;fixedRows=1;rowLines=0;fontStyle=1;align=center;resizeLast=1;html=1;" parent="1" vertex="1">
          <mxGeometry x="940" y="380" width="180" height="120" as="geometry" />
        </mxCell>
        <mxCell id="QuGuH87Z9oa2x3cKEOqw-151" value="" style="shape=tableRow;horizontal=0;startSize=0;swimlaneHead=0;swimlaneBody=0;fillColor=none;collapsible=0;dropTarget=0;points=[[0,0.5],[1,0.5]];portConstraint=eastwest;top=0;left=0;right=0;bottom=1;" parent="QuGuH87Z9oa2x3cKEOqw-150" vertex="1">
          <mxGeometry y="30" width="180" height="30" as="geometry" />
        </mxCell>
        <mxCell id="QuGuH87Z9oa2x3cKEOqw-152" value="PK" style="shape=partialRectangle;connectable=0;fillColor=none;top=0;left=0;bottom=0;right=0;fontStyle=1;overflow=hidden;whiteSpace=wrap;html=1;" parent="QuGuH87Z9oa2x3cKEOqw-151" vertex="1">
          <mxGeometry width="30" height="30" as="geometry">
            <mxRectangle width="30" height="30" as="alternateBounds" />
          </mxGeometry>
        </mxCell>
        <mxCell id="QuGuH87Z9oa2x3cKEOqw-153" value="id _copia int" style="shape=partialRectangle;connectable=0;fillColor=none;top=0;left=0;bottom=0;right=0;align=left;spacingLeft=6;fontStyle=5;overflow=hidden;whiteSpace=wrap;html=1;" parent="QuGuH87Z9oa2x3cKEOqw-151" vertex="1">
          <mxGeometry x="30" width="150" height="30" as="geometry">
            <mxRectangle width="150" height="30" as="alternateBounds" />
          </mxGeometry>
        </mxCell>
        <mxCell id="QuGuH87Z9oa2x3cKEOqw-154" value="" style="shape=tableRow;horizontal=0;startSize=0;swimlaneHead=0;swimlaneBody=0;fillColor=none;collapsible=0;dropTarget=0;points=[[0,0.5],[1,0.5]];portConstraint=eastwest;top=0;left=0;right=0;bottom=0;" parent="QuGuH87Z9oa2x3cKEOqw-150" vertex="1">
          <mxGeometry y="60" width="180" height="30" as="geometry" />
        </mxCell>
        <mxCell id="QuGuH87Z9oa2x3cKEOqw-155" value="FK" style="shape=partialRectangle;connectable=0;fillColor=none;top=0;left=0;bottom=0;right=0;editable=1;overflow=hidden;whiteSpace=wrap;html=1;" parent="QuGuH87Z9oa2x3cKEOqw-154" vertex="1">
          <mxGeometry width="30" height="30" as="geometry">
            <mxRectangle width="30" height="30" as="alternateBounds" />
          </mxGeometry>
        </mxCell>
        <mxCell id="QuGuH87Z9oa2x3cKEOqw-156" value="id_pelicula int not null" style="shape=partialRectangle;connectable=0;fillColor=none;top=0;left=0;bottom=0;right=0;align=left;spacingLeft=6;overflow=hidden;whiteSpace=wrap;html=1;" parent="QuGuH87Z9oa2x3cKEOqw-154" vertex="1">
          <mxGeometry x="30" width="150" height="30" as="geometry">
            <mxRectangle width="150" height="30" as="alternateBounds" />
          </mxGeometry>
        </mxCell>
        <mxCell id="QuGuH87Z9oa2x3cKEOqw-166" value="" style="shape=tableRow;horizontal=0;startSize=0;swimlaneHead=0;swimlaneBody=0;fillColor=none;collapsible=0;dropTarget=0;points=[[0,0.5],[1,0.5]];portConstraint=eastwest;top=0;left=0;right=0;bottom=0;" parent="QuGuH87Z9oa2x3cKEOqw-150" vertex="1">
          <mxGeometry y="90" width="180" height="30" as="geometry" />
        </mxCell>
        <mxCell id="QuGuH87Z9oa2x3cKEOqw-167" value="" style="shape=partialRectangle;connectable=0;fillColor=none;top=0;left=0;bottom=0;right=0;editable=1;overflow=hidden;whiteSpace=wrap;html=1;" parent="QuGuH87Z9oa2x3cKEOqw-166" vertex="1">
          <mxGeometry width="30" height="30" as="geometry">
            <mxRectangle width="30" height="30" as="alternateBounds" />
          </mxGeometry>
        </mxCell>
        <mxCell id="QuGuH87Z9oa2x3cKEOqw-168" value="estado varchar(50)" style="shape=partialRectangle;connectable=0;fillColor=none;top=0;left=0;bottom=0;right=0;align=left;spacingLeft=6;overflow=hidden;whiteSpace=wrap;html=1;" parent="QuGuH87Z9oa2x3cKEOqw-166" vertex="1">
          <mxGeometry x="30" width="150" height="30" as="geometry">
            <mxRectangle width="150" height="30" as="alternateBounds" />
          </mxGeometry>
        </mxCell>
        <mxCell id="QuGuH87Z9oa2x3cKEOqw-165" style="edgeStyle=orthogonalEdgeStyle;rounded=0;orthogonalLoop=1;jettySize=auto;html=1;entryX=1;entryY=0.5;entryDx=0;entryDy=0;startArrow=ERone;startFill=0;endArrow=ERmany;endFill=0;" parent="1" source="QuGuH87Z9oa2x3cKEOqw-2" target="QuGuH87Z9oa2x3cKEOqw-80" edge="1">
          <mxGeometry relative="1" as="geometry" />
        </mxCell>
        <mxCell id="QuGuH87Z9oa2x3cKEOqw-171" value="pelicula" style="shape=table;startSize=30;container=1;collapsible=1;childLayout=tableLayout;fixedRows=1;rowLines=0;fontStyle=1;align=center;resizeLast=1;html=1;" parent="1" vertex="1">
          <mxGeometry x="1320" y="390" width="210" height="180" as="geometry" />
        </mxCell>
        <mxCell id="Ci6O7bzuWGnZG6o28zsV-1" value="" style="shape=tableRow;horizontal=0;startSize=0;swimlaneHead=0;swimlaneBody=0;fillColor=none;collapsible=0;dropTarget=0;points=[[0,0.5],[1,0.5]];portConstraint=eastwest;top=0;left=0;right=0;bottom=0;" parent="QuGuH87Z9oa2x3cKEOqw-171" vertex="1">
          <mxGeometry y="30" width="210" height="30" as="geometry" />
        </mxCell>
        <mxCell id="Ci6O7bzuWGnZG6o28zsV-2" value="PK" style="shape=partialRectangle;connectable=0;fillColor=none;top=0;left=0;bottom=0;right=0;editable=1;overflow=hidden;whiteSpace=wrap;html=1;fontStyle=1" parent="Ci6O7bzuWGnZG6o28zsV-1" vertex="1">
          <mxGeometry width="30" height="30" as="geometry">
            <mxRectangle width="30" height="30" as="alternateBounds" />
          </mxGeometry>
        </mxCell>
        <mxCell id="Ci6O7bzuWGnZG6o28zsV-3" value="&lt;u&gt;id_pelicula int&lt;/u&gt;" style="shape=partialRectangle;connectable=0;fillColor=none;top=0;left=0;bottom=0;right=0;align=left;spacingLeft=6;overflow=hidden;whiteSpace=wrap;html=1;fontStyle=1" parent="Ci6O7bzuWGnZG6o28zsV-1" vertex="1">
          <mxGeometry x="30" width="180" height="30" as="geometry">
            <mxRectangle width="180" height="30" as="alternateBounds" />
          </mxGeometry>
        </mxCell>
        <mxCell id="QuGuH87Z9oa2x3cKEOqw-175" value="" style="shape=tableRow;horizontal=0;startSize=0;swimlaneHead=0;swimlaneBody=0;fillColor=none;collapsible=0;dropTarget=0;points=[[0,0.5],[1,0.5]];portConstraint=eastwest;top=0;left=0;right=0;bottom=0;" parent="QuGuH87Z9oa2x3cKEOqw-171" vertex="1">
          <mxGeometry y="60" width="210" height="30" as="geometry" />
        </mxCell>
        <mxCell id="QuGuH87Z9oa2x3cKEOqw-176" value="" style="shape=partialRectangle;connectable=0;fillColor=none;top=0;left=0;bottom=0;right=0;editable=1;overflow=hidden;whiteSpace=wrap;html=1;fontStyle=0" parent="QuGuH87Z9oa2x3cKEOqw-175" vertex="1">
          <mxGeometry width="30" height="30" as="geometry">
            <mxRectangle width="30" height="30" as="alternateBounds" />
          </mxGeometry>
        </mxCell>
        <mxCell id="QuGuH87Z9oa2x3cKEOqw-177" value="titulo varchar(200) not null" style="shape=partialRectangle;connectable=0;fillColor=none;top=0;left=0;bottom=0;right=0;align=left;spacingLeft=6;overflow=hidden;whiteSpace=wrap;html=1;fontStyle=0" parent="QuGuH87Z9oa2x3cKEOqw-175" vertex="1">
          <mxGeometry x="30" width="180" height="30" as="geometry">
            <mxRectangle width="180" height="30" as="alternateBounds" />
          </mxGeometry>
        </mxCell>
        <mxCell id="QuGuH87Z9oa2x3cKEOqw-178" value="" style="shape=tableRow;horizontal=0;startSize=0;swimlaneHead=0;swimlaneBody=0;fillColor=none;collapsible=0;dropTarget=0;points=[[0,0.5],[1,0.5]];portConstraint=eastwest;top=0;left=0;right=0;bottom=0;" parent="QuGuH87Z9oa2x3cKEOqw-171" vertex="1">
          <mxGeometry y="90" width="210" height="30" as="geometry" />
        </mxCell>
        <mxCell id="QuGuH87Z9oa2x3cKEOqw-179" value="" style="shape=partialRectangle;connectable=0;fillColor=none;top=0;left=0;bottom=0;right=0;editable=1;overflow=hidden;whiteSpace=wrap;html=1;fontStyle=0" parent="QuGuH87Z9oa2x3cKEOqw-178" vertex="1">
          <mxGeometry width="30" height="30" as="geometry">
            <mxRectangle width="30" height="30" as="alternateBounds" />
          </mxGeometry>
        </mxCell>
        <mxCell id="QuGuH87Z9oa2x3cKEOqw-180" value="genero varchar(50) not nul" style="shape=partialRectangle;connectable=0;fillColor=none;top=0;left=0;bottom=0;right=0;align=left;spacingLeft=6;overflow=hidden;whiteSpace=wrap;html=1;fontStyle=0" parent="QuGuH87Z9oa2x3cKEOqw-178" vertex="1">
          <mxGeometry x="30" width="180" height="30" as="geometry">
            <mxRectangle width="180" height="30" as="alternateBounds" />
          </mxGeometry>
        </mxCell>
        <mxCell id="QuGuH87Z9oa2x3cKEOqw-185" value="" style="shape=tableRow;horizontal=0;startSize=0;swimlaneHead=0;swimlaneBody=0;fillColor=none;collapsible=0;dropTarget=0;points=[[0,0.5],[1,0.5]];portConstraint=eastwest;top=0;left=0;right=0;bottom=0;" parent="QuGuH87Z9oa2x3cKEOqw-171" vertex="1">
          <mxGeometry y="120" width="210" height="30" as="geometry" />
        </mxCell>
        <mxCell id="QuGuH87Z9oa2x3cKEOqw-186" value="" style="shape=partialRectangle;connectable=0;fillColor=none;top=0;left=0;bottom=0;right=0;editable=1;overflow=hidden;whiteSpace=wrap;html=1;" parent="QuGuH87Z9oa2x3cKEOqw-185" vertex="1">
          <mxGeometry width="30" height="30" as="geometry">
            <mxRectangle width="30" height="30" as="alternateBounds" />
          </mxGeometry>
        </mxCell>
        <mxCell id="QuGuH87Z9oa2x3cKEOqw-187" value="director varchar(100) not nul" style="shape=partialRectangle;connectable=0;fillColor=none;top=0;left=0;bottom=0;right=0;align=left;spacingLeft=6;overflow=hidden;whiteSpace=wrap;html=1;" parent="QuGuH87Z9oa2x3cKEOqw-185" vertex="1">
          <mxGeometry x="30" width="180" height="30" as="geometry">
            <mxRectangle width="180" height="30" as="alternateBounds" />
          </mxGeometry>
        </mxCell>
        <mxCell id="rG9OFgmg1wYXfBV-wKyQ-8" value="" style="shape=tableRow;horizontal=0;startSize=0;swimlaneHead=0;swimlaneBody=0;fillColor=none;collapsible=0;dropTarget=0;points=[[0,0.5],[1,0.5]];portConstraint=eastwest;top=0;left=0;right=0;bottom=0;" vertex="1" parent="QuGuH87Z9oa2x3cKEOqw-171">
          <mxGeometry y="150" width="210" height="30" as="geometry" />
        </mxCell>
        <mxCell id="rG9OFgmg1wYXfBV-wKyQ-9" value="" style="shape=partialRectangle;connectable=0;fillColor=none;top=0;left=0;bottom=0;right=0;editable=1;overflow=hidden;whiteSpace=wrap;html=1;" vertex="1" parent="rG9OFgmg1wYXfBV-wKyQ-8">
          <mxGeometry width="30" height="30" as="geometry">
            <mxRectangle width="30" height="30" as="alternateBounds" />
          </mxGeometry>
        </mxCell>
        <mxCell id="rG9OFgmg1wYXfBV-wKyQ-10" value="sinopsis varchar(3000) not nul" style="shape=partialRectangle;connectable=0;fillColor=none;top=0;left=0;bottom=0;right=0;align=left;spacingLeft=6;overflow=hidden;whiteSpace=wrap;html=1;" vertex="1" parent="rG9OFgmg1wYXfBV-wKyQ-8">
          <mxGeometry x="30" width="180" height="30" as="geometry">
            <mxRectangle width="180" height="30" as="alternateBounds" />
          </mxGeometry>
        </mxCell>
        <mxCell id="QuGuH87Z9oa2x3cKEOqw-196" value="direccion" style="shape=table;startSize=30;container=1;collapsible=1;childLayout=tableLayout;fixedRows=1;rowLines=0;fontStyle=1;align=center;resizeLast=1;html=1;" parent="1" vertex="1">
          <mxGeometry x="1340" y="740" width="210" height="190" as="geometry" />
        </mxCell>
        <mxCell id="QuGuH87Z9oa2x3cKEOqw-197" value="" style="shape=tableRow;horizontal=0;startSize=0;swimlaneHead=0;swimlaneBody=0;fillColor=none;collapsible=0;dropTarget=0;points=[[0,0.5],[1,0.5]];portConstraint=eastwest;top=0;left=0;right=0;bottom=1;" parent="QuGuH87Z9oa2x3cKEOqw-196" vertex="1">
          <mxGeometry y="30" width="210" height="30" as="geometry" />
        </mxCell>
        <mxCell id="QuGuH87Z9oa2x3cKEOqw-198" value="PK" style="shape=partialRectangle;connectable=0;fillColor=none;top=0;left=0;bottom=0;right=0;fontStyle=1;overflow=hidden;whiteSpace=wrap;html=1;" parent="QuGuH87Z9oa2x3cKEOqw-197" vertex="1">
          <mxGeometry width="30" height="30" as="geometry">
            <mxRectangle width="30" height="30" as="alternateBounds" />
          </mxGeometry>
        </mxCell>
        <mxCell id="QuGuH87Z9oa2x3cKEOqw-199" value="id_direccion int" style="shape=partialRectangle;connectable=0;fillColor=none;top=0;left=0;bottom=0;right=0;align=left;spacingLeft=6;fontStyle=5;overflow=hidden;whiteSpace=wrap;html=1;" parent="QuGuH87Z9oa2x3cKEOqw-197" vertex="1">
          <mxGeometry x="30" width="180" height="30" as="geometry">
            <mxRectangle width="180" height="30" as="alternateBounds" />
          </mxGeometry>
        </mxCell>
        <mxCell id="QuGuH87Z9oa2x3cKEOqw-254" value="" style="shape=tableRow;horizontal=0;startSize=0;swimlaneHead=0;swimlaneBody=0;fillColor=none;collapsible=0;dropTarget=0;points=[[0,0.5],[1,0.5]];portConstraint=eastwest;top=0;left=0;right=0;bottom=0;" parent="QuGuH87Z9oa2x3cKEOqw-196" vertex="1">
          <mxGeometry y="60" width="210" height="30" as="geometry" />
        </mxCell>
        <mxCell id="QuGuH87Z9oa2x3cKEOqw-255" value="FK" style="shape=partialRectangle;connectable=0;fillColor=none;top=0;left=0;bottom=0;right=0;editable=1;overflow=hidden;whiteSpace=wrap;html=1;" parent="QuGuH87Z9oa2x3cKEOqw-254" vertex="1">
          <mxGeometry width="30" height="30" as="geometry">
            <mxRectangle width="30" height="30" as="alternateBounds" />
          </mxGeometry>
        </mxCell>
        <mxCell id="QuGuH87Z9oa2x3cKEOqw-256" value="id_socio&lt;span style=&quot;background-color: transparent; color: light-dark(rgb(0, 0, 0), rgb(255, 255, 255));&quot;&gt;&amp;nbsp;int not null&lt;/span&gt;" style="shape=partialRectangle;connectable=0;fillColor=none;top=0;left=0;bottom=0;right=0;align=left;spacingLeft=6;overflow=hidden;whiteSpace=wrap;html=1;" parent="QuGuH87Z9oa2x3cKEOqw-254" vertex="1">
          <mxGeometry x="30" width="180" height="30" as="geometry">
            <mxRectangle width="180" height="30" as="alternateBounds" />
          </mxGeometry>
        </mxCell>
        <mxCell id="QuGuH87Z9oa2x3cKEOqw-206" value="" style="shape=tableRow;horizontal=0;startSize=0;swimlaneHead=0;swimlaneBody=0;fillColor=none;collapsible=0;dropTarget=0;points=[[0,0.5],[1,0.5]];portConstraint=eastwest;top=0;left=0;right=0;bottom=0;" parent="QuGuH87Z9oa2x3cKEOqw-196" vertex="1">
          <mxGeometry y="90" width="210" height="25" as="geometry" />
        </mxCell>
        <mxCell id="QuGuH87Z9oa2x3cKEOqw-207" value="" style="shape=partialRectangle;connectable=0;fillColor=none;top=0;left=0;bottom=0;right=0;editable=1;overflow=hidden;whiteSpace=wrap;html=1;" parent="QuGuH87Z9oa2x3cKEOqw-206" vertex="1">
          <mxGeometry width="30" height="25" as="geometry">
            <mxRectangle width="30" height="25" as="alternateBounds" />
          </mxGeometry>
        </mxCell>
        <mxCell id="QuGuH87Z9oa2x3cKEOqw-208" value="calle varchar(80) not null" style="shape=partialRectangle;connectable=0;fillColor=none;top=0;left=0;bottom=0;right=0;align=left;spacingLeft=6;overflow=hidden;whiteSpace=wrap;html=1;" parent="QuGuH87Z9oa2x3cKEOqw-206" vertex="1">
          <mxGeometry x="30" width="180" height="25" as="geometry">
            <mxRectangle width="180" height="25" as="alternateBounds" />
          </mxGeometry>
        </mxCell>
        <mxCell id="QuGuH87Z9oa2x3cKEOqw-221" value="" style="shape=tableRow;horizontal=0;startSize=0;swimlaneHead=0;swimlaneBody=0;fillColor=none;collapsible=0;dropTarget=0;points=[[0,0.5],[1,0.5]];portConstraint=eastwest;top=0;left=0;right=0;bottom=0;" parent="QuGuH87Z9oa2x3cKEOqw-196" vertex="1">
          <mxGeometry y="115" width="210" height="25" as="geometry" />
        </mxCell>
        <mxCell id="QuGuH87Z9oa2x3cKEOqw-222" value="" style="shape=partialRectangle;connectable=0;fillColor=none;top=0;left=0;bottom=0;right=0;editable=1;overflow=hidden;whiteSpace=wrap;html=1;" parent="QuGuH87Z9oa2x3cKEOqw-221" vertex="1">
          <mxGeometry width="30" height="25" as="geometry">
            <mxRectangle width="30" height="25" as="alternateBounds" />
          </mxGeometry>
        </mxCell>
        <mxCell id="QuGuH87Z9oa2x3cKEOqw-223" value="numero int not null" style="shape=partialRectangle;connectable=0;fillColor=none;top=0;left=0;bottom=0;right=0;align=left;spacingLeft=6;overflow=hidden;whiteSpace=wrap;html=1;" parent="QuGuH87Z9oa2x3cKEOqw-221" vertex="1">
          <mxGeometry x="30" width="180" height="25" as="geometry">
            <mxRectangle width="180" height="25" as="alternateBounds" />
          </mxGeometry>
        </mxCell>
        <mxCell id="QuGuH87Z9oa2x3cKEOqw-246" value="" style="shape=tableRow;horizontal=0;startSize=0;swimlaneHead=0;swimlaneBody=0;fillColor=none;collapsible=0;dropTarget=0;points=[[0,0.5],[1,0.5]];portConstraint=eastwest;top=0;left=0;right=0;bottom=0;" parent="QuGuH87Z9oa2x3cKEOqw-196" vertex="1">
          <mxGeometry y="140" width="210" height="25" as="geometry" />
        </mxCell>
        <mxCell id="QuGuH87Z9oa2x3cKEOqw-247" value="" style="shape=partialRectangle;connectable=0;fillColor=none;top=0;left=0;bottom=0;right=0;editable=1;overflow=hidden;whiteSpace=wrap;html=1;" parent="QuGuH87Z9oa2x3cKEOqw-246" vertex="1">
          <mxGeometry width="30" height="25" as="geometry">
            <mxRectangle width="30" height="25" as="alternateBounds" />
          </mxGeometry>
        </mxCell>
        <mxCell id="QuGuH87Z9oa2x3cKEOqw-248" value="piso varchar(10) not null" style="shape=partialRectangle;connectable=0;fillColor=none;top=0;left=0;bottom=0;right=0;align=left;spacingLeft=6;overflow=hidden;whiteSpace=wrap;html=1;" parent="QuGuH87Z9oa2x3cKEOqw-246" vertex="1">
          <mxGeometry x="30" width="180" height="25" as="geometry">
            <mxRectangle width="180" height="25" as="alternateBounds" />
          </mxGeometry>
        </mxCell>
        <mxCell id="QuGuH87Z9oa2x3cKEOqw-273" value="" style="shape=tableRow;horizontal=0;startSize=0;swimlaneHead=0;swimlaneBody=0;fillColor=none;collapsible=0;dropTarget=0;points=[[0,0.5],[1,0.5]];portConstraint=eastwest;top=0;left=0;right=0;bottom=0;" parent="QuGuH87Z9oa2x3cKEOqw-196" vertex="1">
          <mxGeometry y="165" width="210" height="25" as="geometry" />
        </mxCell>
        <mxCell id="QuGuH87Z9oa2x3cKEOqw-274" value="" style="shape=partialRectangle;connectable=0;fillColor=none;top=0;left=0;bottom=0;right=0;editable=1;overflow=hidden;whiteSpace=wrap;html=1;" parent="QuGuH87Z9oa2x3cKEOqw-273" vertex="1">
          <mxGeometry width="30" height="25" as="geometry">
            <mxRectangle width="30" height="25" as="alternateBounds" />
          </mxGeometry>
        </mxCell>
        <mxCell id="QuGuH87Z9oa2x3cKEOqw-275" value="codigo_postal int not null" style="shape=partialRectangle;connectable=0;fillColor=none;top=0;left=0;bottom=0;right=0;align=left;spacingLeft=6;overflow=hidden;whiteSpace=wrap;html=1;" parent="QuGuH87Z9oa2x3cKEOqw-273" vertex="1">
          <mxGeometry x="30" width="180" height="25" as="geometry">
            <mxRectangle width="180" height="25" as="alternateBounds" />
          </mxGeometry>
        </mxCell>
        <mxCell id="rG9OFgmg1wYXfBV-wKyQ-18" style="edgeStyle=orthogonalEdgeStyle;rounded=0;orthogonalLoop=1;jettySize=auto;html=1;startArrow=ERone;startFill=0;endArrow=ERmany;endFill=0;" edge="1" parent="1" source="QuGuH87Z9oa2x3cKEOqw-2" target="QuGuH87Z9oa2x3cKEOqw-254">
          <mxGeometry relative="1" as="geometry" />
        </mxCell>
        <mxCell id="rG9OFgmg1wYXfBV-wKyQ-19" style="edgeStyle=orthogonalEdgeStyle;rounded=0;orthogonalLoop=1;jettySize=auto;html=1;startArrow=ERone;startFill=0;endArrow=ERmany;endFill=0;" edge="1" parent="1" source="Ci6O7bzuWGnZG6o28zsV-1" target="QuGuH87Z9oa2x3cKEOqw-154">
          <mxGeometry relative="1" as="geometry" />
        </mxCell>
        <mxCell id="rG9OFgmg1wYXfBV-wKyQ-21" style="edgeStyle=orthogonalEdgeStyle;rounded=0;orthogonalLoop=1;jettySize=auto;html=1;startArrow=ERone;startFill=0;endArrow=ERmany;endFill=0;" edge="1" parent="1" source="QuGuH87Z9oa2x3cKEOqw-151" target="QuGuH87Z9oa2x3cKEOqw-77">
          <mxGeometry relative="1" as="geometry" />
        </mxCell>
      </root>
    </mxGraphModel>
  </diagram>
</mxfile>
